# xmcd
#
# Track frame offsets: 
#        150
#        12712
#        27441
#        39341
#        54516
#        68776
#        83002
#        97665
#        110989
#        132902
#        154849
#        176296
#        199430
#        212841
#        228151
#        240182
#        250984
#        265215
#        279369
#        293169
#        307075
#        318609
#        333180
#        344134
#
# Disc length: 4762 seconds
#
# Revision: 10
# Processed by: cddbd v1.5.2PL0 Copyright (c) Steve Scherf et al.
# Submitted via: ExactAudioCopy v1.0b1
#
DISCID=5f129818
DTITLE=Nat King Cole - Vol.02 - Hit That Jive Jack
DYEAR=1900
DGENRE=Jazz
TTITLE0=I Like To Riff
TTITLE1=This Will Make You Laugh
TTITLE2=Stop! The Red Light's On
TTITLE3=Hit The Ramp
TTITLE4=Call The Police
TTITLE5=Are You Fer It ¿
TTITLE6=That Ain't Right
TTITLE7=Hit That Jive Jack
TTITLE8=Indiana
TTITLE9=I Can't Get Started
TTITLE10=Tea For Two
TTITLE11=Body And Soul
TTITLE12=Vom, Vim Veedle
TTITLE13=All For You
TTITLE14=Let's Spring One
TTITLE15=Beautiful Moons Ago
TTITLE16=Pitchin' Up A Boogie
TTITLE17=I'm Lost
TTITLE18=F.S.T. (Fine, Sweet And Tasty)
TTITLE19=My Lips Remember Your Kisses
TTITLE20=Cole A Penny
TTITLE21=Let's Pretend
TTITLE22=Straighten Up And Fly Right
TTITLE23=Gee Baby, Ain't I Good To You ¿
EXTD=
EXTT0=
EXTT1=
EXTT2=
EXTT3=
EXTT4=
EXTT5=
EXTT6=
EXTT7=
EXTT8=
EXTT9=
EXTT10=
EXTT11=
EXTT12=
EXTT13=
EXTT14=
EXTT15=
EXTT16=
EXTT17=
EXTT18=
EXTT19=
EXTT20=
EXTT21=
EXTT22=
EXTT23=
PLAYORDER=
